<?xml version="1.0" encoding="UTF-8"?>
<svg width="88px" height="14px" viewBox="0 0 88 14" version="1.1" xmlns="http://www.w3.org/2000/svg" xmlns:xlink="http://www.w3.org/1999/xlink">
    <title>00C012FF-C195-4933-B245-810FC80B46F4</title>
    <defs>
        <polygon id="path-1" points="0 0 11.9094602 0 11.9094602 13.8987056 0 13.8987056"></polygon>
        <polygon id="path-3" points="0 0 7.94343624 0 7.94343624 13.8987056 0 13.8987056"></polygon>
        <polygon id="path-5" points="0 0 7.94343624 0 7.94343624 13.8987056 0 13.8987056"></polygon>
        <polygon id="path-7" points="0 0 13.7532286 0 13.7532286 13.8987056 0 13.8987056"></polygon>
        <polygon id="path-9" points="0 0 11.909295 0 11.909295 13.8987056 0 13.8987056"></polygon>
    </defs>
    <g id="Page-1" stroke="none" stroke-width="1" fill="none" fill-rule="evenodd">
        <g id="Log-in" transform="translate(-170.000000, -21.000000)">
            <g id="Logo" transform="translate(170.169069, 21.071836)">
                <polygon id="Fill-1" fill="#FCB702" points="4.66835953 0 0 13.78125 3.07146201 13.78125 7.73982154 0"></polygon>
                <g id="Group-25" transform="translate(6.924205, 0.000059)">
                    <g id="Group-4">
                        <mask id="mask-2" fill="white">
                            <use xlink:href="#path-1"></use>
                        </mask>
                        <g id="Clip-3"></g>
                        <path d="M5.58555794,11.0576812 L6.43696294,8.54457188 C6.50100305,8.355375 6.50100305,8.22051563 6.4371682,8.1403875 C6.37312809,8.06025938 6.22719054,8.02009688 5.9995608,8.02009688 L3.99440761,8.02009688 C2.20210567,8.02009688 1.58223028,7.20444375 2.13498671,5.57254688 L3.20847951,2.40384375 C3.75138362,0.80128125 4.97984527,0 6.89365921,0 L9.67324612,0 C11.5868548,0 12.2724124,0.80128125 11.7295082,2.40384375 L11.1149695,4.21785 L7.85692914,4.21785 L8.32327247,2.84090625 C8.44663178,2.47708125 8.30336257,2.29438125 7.89325958,2.29438125 L7.11882586,2.29438125 C6.70872288,2.29438125 6.44168384,2.47708125 6.31852979,2.84090625 L5.48929252,5.28845625 C5.42525242,5.47785 5.42504716,5.61290625 5.48908727,5.6928375 C5.55312737,5.77296563 5.69906492,5.81293125 5.92689991,5.81293125 L7.88628085,5.81293125 C8.85796631,5.81293125 9.48913082,6.01335 9.77874809,6.41399063 C10.0681601,6.81463125 10.0798597,7.40840625 9.81343648,8.19492188 L8.70299746,11.4728906 C8.1551672,13.0900219 6.92424246,13.8987844 5.01042852,13.8987844 L2.25383037,13.8987844 C0.324416914,13.8987844 -0.366066794,13.0900219 0.181763473,11.4728906 L0.78891294,9.68093438 L4.04695334,9.68093438 L3.58040474,11.0576812 C3.45704544,11.4220969 3.60051991,11.6040094 4.01062289,11.6040094 L4.78546713,11.6040094 C5.19557011,11.6040094 5.46219863,11.4220969 5.58555794,11.0576812" id="Fill-2" fill="#FFFFFF" mask="url(#mask-2)"></path>
                    </g>
                    <g id="Group-7" transform="translate(9.475912, 0.000000)">
                        <mask id="mask-4" fill="white">
                            <use xlink:href="#path-3"></use>
                        </mask>
                        <g id="Clip-6"></g>
                        <polygon id="Fill-5" fill="#FFFFFF" mask="url(#mask-4)" points="4.70817934 0 7.94343624 0 3.23505164 13.8987844 0 13.8987844"></polygon>
                    </g>
                    <path d="M21.3221619,11.2107122 L24.2090981,2.68799344 C24.3324574,2.32377469 24.1891882,2.14166531 23.7790852,2.14166531 L21.9789835,2.14166531 L18.7217642,11.7570403 L20.5218659,11.7570403 C20.9319689,11.7570403 21.1985974,11.5751278 21.3221619,11.2107122 L21.3221619,11.2107122 Z M19.446731,5.90624997e-05 L25.4841531,5.90624997e-05 C27.413156,5.90624997e-05 28.1063081,0.801340312 27.563404,2.40390281 L24.4913262,11.4729497 C23.9434959,13.0900809 22.7047714,13.8986466 20.7759737,13.8986466 L14.7385517,13.8986466 L19.446731,5.90624997e-05 Z" id="Fill-8" fill="#FFFFFF"></path>
                    <polygon id="Fill-10" fill="#FFFFFF" points="29.413383 11.6040881 34.0612169 11.6040881 33.2837043 13.8986662 25.3780353 13.8986662 30.0862147 7.875e-05 37.8098209 7.875e-05 37.0325136 2.29446 32.5669478 2.29446 31.4193573 5.68189125 35.2244069 5.68189125 34.4468943 7.97646937 30.64205 7.97646937"></polygon>
                    <polygon id="Fill-12" fill="#FFFFFF" points="38.4583091 11.6040881 42.6276895 11.6040881 41.8503822 13.8986662 34.4457449 13.8986662 39.1541295 7.875e-05 42.3891811 7.875e-05"></polygon>
                    <g id="Group-16" transform="translate(42.716073, 0.000000)">
                        <mask id="mask-6" fill="white">
                            <use xlink:href="#path-5"></use>
                        </mask>
                        <g id="Clip-15"></g>
                        <polygon id="Fill-14" fill="#FFFFFF" mask="url(#mask-6)" points="4.70817934 0 7.94343624 0 3.23505164 13.8987844 0 13.8987844"></polygon>
                    </g>
                    <g id="Group-19" transform="translate(47.819310, 0.000000)">
                        <mask id="mask-8" fill="white">
                            <use xlink:href="#path-7"></use>
                        </mask>
                        <g id="Clip-18"></g>
                        <polygon id="Fill-17" fill="#FFFFFF" mask="url(#mask-8)" points="10.7687954 0 13.7532286 0 9.04504922 13.8987844 6.12876131 13.8987844 5.78228791 5.57254687 2.96185491 13.8987844 0 13.8987844 4.7083846 0 7.647456 0 7.95554639 8.30438437"></polygon>
                    </g>
                    <polygon id="Fill-20" fill="#FFFFFF" points="62.6765941 11.6040881 67.324428 11.6040881 66.5469154 13.8986662 58.6412464 13.8986662 63.3494258 7.875e-05 71.073032 7.875e-05 70.2957247 2.29446 65.8301588 2.29446 64.6825684 5.68189125 68.487618 5.68189125 67.7101054 7.97646937 63.905261 7.97646937"></polygon>
                    <g id="Group-24" transform="translate(68.121062, 0.000000)">
                        <mask id="mask-10" fill="white">
                            <use xlink:href="#path-9"></use>
                        </mask>
                        <g id="Clip-23"></g>
                        <path d="M5.58547533,11.0576812 L6.43667507,8.54457188 C6.50092043,8.355375 6.50092043,8.22051563 6.43708559,8.1403875 C6.37304548,8.06025938 6.22710793,8.02009688 5.99947819,8.02009688 L3.994325,8.02009688 C2.20202306,8.02009688 1.58214767,7.20444375 2.1349041,5.57254688 L3.2083969,2.40384375 C3.75109575,0.80128125 4.97976266,0 6.8935766,0 L9.67316351,0 C11.5867722,0 12.2721245,0.80128125 11.7294256,2.40384375 L11.1148869,4.21785 L7.85684653,4.21785 L8.32339512,2.84090625 C8.44634391,2.47708125 8.30327996,2.29438125 7.89317697,2.29438125 L7.11874325,2.29438125 C6.70864027,2.29438125 6.44160123,2.47708125 6.31844718,2.84090625 L5.48920991,5.28845625 C5.42516981,5.47785 5.42496455,5.61290625 5.48900466,5.6928375 C5.55304476,5.77296563 5.69898231,5.81293125 5.9268173,5.81293125 L7.88619824,5.81293125 C8.8578837,5.81293125 9.48904821,6.01335 9.77866548,6.41399063 C10.0680775,6.81463125 10.0797771,7.40840625 9.81335387,8.19492188 L8.70291485,11.4728906 C8.15508459,13.0900219 6.92415985,13.8987844 5.01034591,13.8987844 L2.25374776,13.8987844 C0.324334304,13.8987844 -0.365944148,13.0900219 0.181680862,11.4728906 L0.78883033,9.68093438 L4.04687073,9.68093438 L3.58032213,11.0576812 C3.45696283,11.4220969 3.6004373,11.6040094 4.01054028,11.6040094 L4.78538452,11.6040094 C5.1954875,11.6040094 5.46211602,11.4220969 5.58547533,11.0576812" id="Fill-22" fill="#FFFFFF" mask="url(#mask-10)"></path>
                    </g>
                </g>
            </g>
        </g>
    </g>
</svg>